<svg width="128" height="128" viewBox="0 0 128 128" fill="none" xmlns="http://www.w3.org/2000/svg">
<rect width="128" height="128" fill="white"/>
<path d="M92.496 66.6582C92.496 71.26 90.6295 75.4274 87.6138 78.4456C84.5956 81.4612 80.4282 83.3277 75.8264 83.3277H70.5224C75.1242 83.3277 79.2916 81.4612 82.3098 78.4456C84.8204 75.9325 86.5328 72.6239 87.0379 68.9313H82.4917C81.9866 72.6239 80.2741 75.9325 77.7636 78.4456C74.7454 81.4612 70.578 83.3277 65.9762 83.3277H35.5586C35.5586 78.7259 37.4251 74.5585 40.4408 71.5404C43.1231 68.8581 46.7146 67.0876 50.7128 66.7264H50.7279L52.2282 66.6582L92.496 66.6582Z" fill="#3A3A3A"/>
<path d="M92.4641 44.6768C92.4641 49.2786 90.5976 53.4459 87.5819 56.4641C85.2431 58.8004 82.2123 60.4497 78.8253 61.071C77.9237 61.2377 76.9942 61.3311 76.0471 61.3438C75.9637 61.3463 75.8779 61.3463 75.7945 61.3463H70.4906C70.5739 61.3463 70.6598 61.3463 70.7431 61.3438C71.6903 61.3311 72.6197 61.2377 73.5214 61.071C76.9083 60.4497 79.9392 58.8004 82.2779 56.4641C84.7885 53.9511 86.5009 50.6424 87.006 46.9499H82.4598C81.9547 50.6424 80.2422 53.9511 77.7317 56.4641C75.3929 58.8004 72.3621 60.4497 68.9751 61.071C68.0735 61.2377 67.144 61.3311 66.1969 61.3438C66.1135 61.3463 66.0277 61.3463 65.9443 61.3463H49.5273C49.5273 56.7445 51.3938 52.5771 54.4095 49.5589C57.4277 46.5432 61.5951 44.6768 66.1969 44.6768H92.4641Z" fill="#3A3A3A"/>
</svg>
